# xmcd
#
# Track frame offsets:
#	150
#	17717
#	36754
#	52025
#	70601
#	91358
#	111411
#	134497
#	156833
#
# Disc length: 2399 seconds
#
# Revision: 0
# Processed by: cddbd v1.5.2PL0 Copyright (c) Steve Scherf et al.
# Submitted via: EasyCDDAExtractor 15.3.0.1
#
DISCID=78095d09
DTITLE=達明一派 - 你還愛我嗎
DYEAR=1900
DGENRE=
TTITLE0=沒有張揚的命案
TTITLE1=血色薔微
TTITLE2=禁色
TTITLE3=愛煞
TTITLE4=半生緣
TTITLE5=你還愛我嗎?
TTITLE6=末世情
TTITLE7=你你我我
TTITLE8=同黨
EXTD=
EXTT0=
EXTT1=
EXTT2=
EXTT3=
EXTT4=
EXTT5=
EXTT6=
EXTT7=
EXTT8=
PLAYORDER=
